<?xml version="1.0" standalone="no"?>
<!DOCTYPE svg PUBLIC "-//W3C//DTD SVG 20010904//EN"
 "http://www.w3.org/TR/2001/REC-SVG-20010904/DTD/svg10.dtd">
<svg version="1.0" xmlns="http://www.w3.org/2000/svg"
 width="300.000000pt" height="300.000000pt" viewBox="0 0 300.000000 300.000000"
 preserveAspectRatio="xMidYMid meet">
<metadata>
Created by potrace 1.11, written by Peter Selinger 2001-2013
</metadata>
<g transform="translate(0.000000,300.000000) scale(0.100000,-0.100000)"
fill="#000000" stroke="none">
<path d="M2310 2618 c-14 -15 -20 -17 -20 -7 0 8 -3 10 -8 4 -4 -5 -13 -10
-19 -11 -30 -2 -34 -5 -28 -14 3 -5 -3 -10 -14 -10 -12 0 -21 -5 -21 -11 0 -5
-3 -8 -7 -6 -5 2 -21 -9 -36 -25 -15 -15 -25 -28 -22 -28 3 0 0 -6 -7 -14 -7
-8 -16 -12 -20 -9 -5 2 -8 1 -9 -4 -3 -44 -10 -68 -21 -75 -10 -6 -10 -10 2
-18 9 -5 10 -10 3 -10 -12 0 -12 -24 0 -36 4 -4 2 -14 -5 -21 -9 -11 -9 -17 3
-24 12 -7 12 -9 -1 -9 -9 0 -11 -3 -5 -8 16 -12 39 -56 24 -47 -9 6 -9 4 -3
-6 5 -8 9 -18 9 -24 0 -5 10 -14 23 -20 12 -5 22 -15 22 -22 0 -7 5 -13 10
-13 6 0 10 -6 10 -14 0 -8 5 -18 12 -22 7 -4 8 -3 4 4 -4 7 -2 12 3 12 6 0 11
-5 11 -11 0 -5 6 -7 13 -4 6 4 3 -1 -8 -11 -15 -13 -16 -15 -3 -11 9 3 22 -1
29 -9 6 -8 14 -12 17 -9 3 3 12 0 19 -7 17 -14 55 -19 47 -6 -3 4 0 8 5 8 6 0
11 -8 11 -17 1 -17 1 -17 11 0 10 17 12 16 39 -3 15 -11 32 -20 37 -20 4 0 1
5 -7 10 -12 7 -10 9 7 7 12 0 20 -4 17 -8 -6 -10 17 -17 38 -11 10 2 15 9 11
15 -4 7 6 1 22 -11 19 -15 32 -19 39 -12 5 5 15 10 21 10 5 0 3 -5 -5 -10 -12
-8 -10 -10 9 -10 21 0 22 -2 10 -17 -11 -15 -10 -14 9 1 13 12 22 14 22 7 0
-7 4 -9 10 -6 6 3 7 -1 4 -10 -4 -10 -2 -15 7 -13 8 2 13 -2 12 -9 -2 -7 3
-10 10 -7 8 3 13 -4 14 -18 2 -37 -7 -69 -17 -63 -5 3 -7 0 -5 -7 7 -16 -61
-82 -70 -68 -4 6 -13 5 -25 -2 -14 -9 -22 -9 -36 3 -16 13 -16 12 -4 -11 12
-22 12 -24 -2 -12 -12 9 -18 10 -23 2 -5 -7 -11 -8 -19 -1 -6 6 -18 6 -25 1
-17 -10 -71 8 -71 23 0 7 -5 5 -10 -3 -6 -9 -13 -11 -17 -5 -5 6 -17 12 -28
13 -11 2 -27 10 -36 18 -9 8 -19 11 -23 7 -4 -5 -7 -3 -6 2 5 21 0 36 -10 30
-5 -3 -10 1 -10 9 0 9 -4 16 -10 16 -5 0 -10 7 -10 15 0 9 -6 12 -17 8 -12 -5
-15 -2 -11 9 5 13 3 14 -18 4 -13 -6 -24 -18 -24 -26 0 -13 -1 -13 -10 0 -8
12 -10 12 -16 -3 -3 -9 -10 -15 -14 -12 -5 3 -15 -1 -23 -9 -8 -8 -17 -12 -21
-9 -6 6 -10 -12 -7 -29 0 -5 -3 -8 -9 -8 -5 0 -2 -9 8 -19 40 -45 44 -51 30
-51 -7 -1 -3 -6 10 -13 12 -7 19 -16 16 -20 -4 -4 -2 -7 5 -7 7 0 9 -5 6 -10
-4 -6 -1 -9 7 -8 7 2 12 -3 10 -10 -1 -8 2 -11 8 -7 5 3 10 1 10 -5 0 -6 7
-10 16 -8 10 2 19 -4 21 -12 4 -13 3 -13 -7 0 -10 13 -11 13 -7 0 2 -8 11 -14
21 -12 9 2 16 -3 16 -10 0 -9 3 -9 10 2 8 13 10 13 10 -2 0 -12 6 -15 22 -10
17 4 20 2 14 -13 -5 -15 -4 -16 9 -5 8 7 15 9 15 4 0 -5 5 -2 10 6 6 10 10 11
10 3 0 -7 7 -13 15 -13 22 0 18 -18 -6 -31 -12 -6 -19 -7 -16 -2 3 4 -2 15
-11 23 -14 13 -15 12 -10 -2 9 -23 -2 -30 -20 -11 -13 13 -17 13 -26 1 -14
-17 -42 -17 -38 1 1 7 -2 10 -8 6 -6 -3 -8 -11 -5 -16 4 -5 1 -9 -4 -9 -6 0
-11 5 -11 10 0 6 -5 10 -11 10 -5 0 -8 -4 -4 -9 3 -5 1 -13 -5 -16 -6 -4 -10
-3 -9 2 3 20 -2 25 -16 13 -12 -10 -15 -10 -16 1 0 8 -4 5 -9 -6 -7 -17 -9
-17 -9 -2 -1 9 -6 17 -12 17 -5 0 -8 -4 -5 -8 3 -5 -1 -9 -9 -9 -8 0 -12 3
-10 7 2 3 -5 6 -15 6 -10 0 -16 -4 -14 -8 3 -4 0 -8 -5 -8 -6 0 -11 6 -11 13
0 8 -4 7 -10 -3 -8 -13 -10 -13 -10 0 0 11 -3 11 -12 2 -14 -14 -32 -16 -24
-3 4 5 -7 7 -25 4 -17 -2 -37 1 -47 9 -9 7 -13 8 -9 2 4 -7 0 -14 -8 -18 -8
-3 -15 -1 -15 5 0 6 -6 7 -17 0 -12 -7 -21 -5 -30 7 -12 16 -13 16 -7 0 6 -17
-10 -19 -33 -5 -7 5 -13 4 -13 -1 0 -13 -33 -11 -50 3 -27 21 -37 24 -37 11 0
-8 6 -12 14 -9 7 3 13 1 13 -4 0 -4 -15 -9 -32 -9 -18 -1 -27 1 -20 3 6 3 12
9 12 14 0 4 -7 6 -15 3 -8 -4 -15 -2 -15 4 0 11 66 26 79 18 4 -3 7 6 5 19 -1
14 2 23 6 20 5 -3 11 -1 15 5 4 7 12 7 25 0 21 -11 27 -5 24 28 -1 12 1 20 4
17 3 -2 10 3 17 12 9 13 14 13 20 3 6 -9 4 -11 -6 -5 -8 5 -11 5 -7 0 4 -4 0
-13 -9 -20 -13 -9 -13 -14 -3 -20 9 -6 11 -4 5 5 -6 10 -4 12 11 6 10 -4 15
-4 11 0 -4 4 2 17 12 28 20 21 21 24 21 52 0 8 4 13 10 9 5 -3 8 8 7 28 -2 22
1 34 10 34 6 0 9 -5 6 -10 -3 -6 -1 -7 5 -3 6 4 9 13 6 21 -4 8 -11 12 -17 8
-6 -3 -7 -1 -3 5 4 7 14 12 22 12 8 0 12 5 9 10 -4 6 -12 7 -18 3 -9 -5 -9 -3
-1 8 5 8 10 26 9 40 -1 20 3 25 15 21 13 -5 13 -4 0 13 -12 15 -12 17 -1 10
10 -6 12 -4 6 5 -4 7 -2 15 5 20 8 5 7 9 -5 13 -9 4 -13 3 -10 -2 3 -5 1 -12
-4 -15 -5 -4 -8 2 -6 11 2 10 4 18 5 18 1 0 4 13 6 28 4 22 2 27 -8 21 -10 -6
-10 -4 -2 7 12 16 12 29 1 46 -4 6 -3 14 2 17 5 4 8 20 6 36 -2 16 1 32 6 36
6 4 4 13 -6 24 -10 11 -12 20 -7 24 6 3 9 18 7 34 -2 16 4 35 16 48 15 16 16
21 5 21 -8 0 -12 -5 -9 -11 4 -6 -1 -5 -10 3 -11 9 -14 18 -8 25 5 6 7 23 5
39 -1 15 1 25 6 22 12 -7 6 20 -8 37 -6 8 -9 18 -5 22 11 10 14 46 4 46 -5 0
-12 7 -15 16 -6 15 -4 15 10 3 16 -13 16 -12 6 8 -16 29 -30 37 -45 24 -8 -6
-18 -6 -27 -1 -9 6 -20 4 -29 -3 -10 -8 -13 -8 -8 -1 4 7 -2 12 -18 12 -14 0
-25 -6 -25 -12 0 -6 -4 -4 -10 4 -12 19 -22 8 -24 -24 0 -14 -4 -26 -8 -26 -4
0 -3 -13 2 -30 5 -19 5 -30 -1 -30 -6 0 -5 -8 1 -20 6 -11 7 -20 2 -20 -5 0
-6 -22 -2 -50 4 -27 4 -50 0 -50 -4 0 -4 -22 0 -50 4 -27 3 -50 -2 -50 -5 0
-4 -9 2 -20 6 -12 7 -20 1 -20 -6 0 -6 -11 -1 -30 5 -16 5 -30 1 -30 -5 0 -5
-18 -1 -40 4 -22 5 -40 1 -40 -3 0 -6 -28 -6 -62 0 -44 -4 -62 -12 -61 -7 2
-10 -4 -7 -12 4 -9 1 -22 -6 -30 -7 -8 -10 -15 -7 -15 3 0 -9 -16 -26 -35 -17
-19 -37 -35 -44 -35 -7 0 -13 -7 -13 -16 0 -13 -3 -14 -13 -5 -10 8 -17 7 -25
-1 -8 -8 -16 -8 -28 3 -12 9 -15 10 -10 2 7 -13 -9 -18 -49 -13 -34 4 -40 5
-52 13 -7 5 -17 6 -21 3 -5 -3 -18 3 -28 13 -11 9 -26 15 -33 13 -8 -3 -11 0
-7 7 4 6 2 11 -3 11 -6 0 -11 7 -11 16 0 8 -4 13 -9 10 -5 -3 -12 1 -15 10 -3
8 -2 12 4 9 6 -3 10 -1 10 4 0 6 -7 11 -16 11 -14 0 -15 2 -3 17 12 15 12 16
-2 11 -13 -5 -16 -2 -11 14 3 14 1 19 -6 14 -8 -5 -10 -2 -6 8 3 9 9 14 13 11
11 -6 6 36 -5 43 -11 8 -12 27 -1 38 10 10 9 26 -1 20 -5 -3 -9 2 -9 10 0 9 6
13 15 9 12 -4 12 -2 4 8 -7 8 -9 17 -5 20 3 4 1 7 -4 7 -16 0 -10 30 8 41 11
7 11 9 -3 9 -10 0 -18 5 -18 11 0 5 6 7 13 3 7 -5 6 0 -3 11 -14 17 -13 18 4
12 15 -6 17 -5 8 6 -7 8 -9 17 -5 20 3 4 1 7 -4 7 -16 0 -10 30 8 41 11 7 11
9 -3 9 -10 0 -18 5 -18 11 0 5 6 7 13 3 7 -5 6 0 -3 11 -14 17 -13 18 4 12 15
-6 17 -5 8 6 -7 8 -9 17 -5 20 3 4 1 7 -4 7 -16 0 -10 30 8 41 11 7 11 9 -3 9
-10 0 -18 5 -18 11 0 5 6 7 13 3 7 -5 6 0 -3 11 -13 17 -13 18 0 13 11 -4 15
1 15 17 0 16 -4 21 -15 17 -13 -5 -13 -3 -1 11 7 9 10 17 6 17 -4 0 -1 8 6 17
8 9 9 14 3 10 -7 -4 -18 1 -25 10 -8 9 -9 14 -2 10 13 -8 12 18 -2 30 -4 4 -5
2 -1 -4 4 -8 1 -13 -9 -13 -9 0 -13 4 -10 10 4 6 -1 7 -11 3 -12 -4 -15 -3
-10 5 5 8 2 10 -8 6 -9 -3 -16 -11 -16 -18 0 -6 -4 -5 -9 3 -8 13 -12 13 -27
0 -10 -8 -15 -9 -11 -3 5 8 -6 11 -33 10 -22 0 -40 -5 -41 -11 0 -5 -2 -20 -3
-33 -2 -13 1 -25 6 -28 5 -3 3 -13 -4 -21 -13 -16 -13 -20 2 -38 12 -15 6 -45
-11 -56 -11 -7 -10 -9 5 -9 15 0 16 -3 7 -14 -10 -11 -10 -20 -1 -37 8 -14 8
-19 1 -15 -6 4 -11 2 -11 -3 0 -6 6 -11 13 -11 8 0 7 -4 -3 -10 -12 -8 -12
-10 -1 -10 10 0 11 -3 2 -14 -8 -10 -9 -16 -2 -21 12 -7 9 -40 -4 -52 -4 -5
-5 -2 0 6 5 9 4 12 -3 7 -9 -5 -7 -15 6 -34 9 -14 11 -23 4 -19 -6 5 -12 4
-12 -2 0 -6 6 -11 13 -11 8 0 7 -4 -3 -10 -12 -8 -12 -10 -1 -10 10 0 11 -3 2
-14 -8 -10 -9 -16 -2 -21 12 -7 9 -40 -4 -52 -4 -5 -5 -2 0 6 6 10 4 12 -4 7
-8 -6 -9 -12 -2 -20 6 -7 9 -22 6 -34 -2 -12 1 -22 7 -22 7 0 7 -5 -1 -14 -9
-11 -8 -15 5 -20 12 -5 14 -9 5 -20 -9 -10 -7 -16 4 -26 13 -11 13 -15 3 -21
-10 -7 -10 -9 -1 -9 7 0 10 -6 7 -13 -3 -8 2 -20 11 -27 8 -7 15 -21 15 -31 0
-11 5 -19 10 -19 6 0 10 -7 10 -15 0 -8 5 -15 10 -15 6 0 10 -6 10 -14 0 -8
11 -23 25 -34 13 -11 21 -23 17 -28 -4 -5 1 -3 10 4 14 12 16 10 14 -13 -2
-14 -1 -23 2 -20 3 2 12 -1 21 -8 14 -11 15 -10 1 8 -15 19 -15 19 11 0 15
-11 24 -24 21 -30 -3 -5 3 -3 13 5 15 12 17 12 10 1 -6 -11 -4 -13 9 -8 9 4
15 3 13 -1 -3 -4 2 -13 10 -21 13 -12 14 -11 9 10 -6 21 -6 22 5 5 9 -15 13
-16 20 -5 7 11 9 11 9 1 0 -7 4 -11 9 -7 5 3 13 1 16 -5 5 -8 12 -7 23 2 10 8
13 9 9 1 -4 -6 -3 -14 2 -17 5 -4 12 -2 16 4 3 5 12 10 18 10 7 0 3 -7 -7 -15
-16 -12 -22 -12 -35 -2 -12 10 -14 9 -8 -6 5 -14 3 -16 -11 -8 -9 5 -21 11
-27 13 -5 1 -9 7 -7 11 1 5 -2 5 -8 2 -6 -4 -9 -13 -6 -20 3 -9 -2 -12 -16
-10 -12 3 -28 -1 -37 -8 -8 -6 -12 -7 -9 -2 4 6 3 17 -3 25 -7 12 -9 11 -9 -5
0 -17 -2 -17 -10 -5 -7 11 -10 12 -10 2 0 -10 -4 -10 -16 2 -18 19 -31 21 -16
4 8 -10 4 -13 -14 -14 -13 -1 -22 1 -20 5 3 4 -8 7 -24 6 -15 0 -26 -3 -23 -7
2 -5 -1 -8 -6 -8 -6 0 -11 4 -11 8 0 5 -7 9 -15 9 -8 0 -12 -4 -9 -9 3 -4 0
-8 -5 -8 -6 0 -11 6 -11 13 0 8 -4 7 -10 -3 -8 -13 -10 -13 -10 0 0 11 -3 11
-12 2 -13 -13 -32 -16 -24 -4 2 4 -8 8 -24 7 -15 0 -26 -3 -23 -7 2 -5 -1 -8
-6 -8 -6 0 -11 6 -11 13 0 8 -4 7 -10 -3 -5 -8 -10 -10 -10 -5 0 6 -9 11 -20
12 -11 1 -20 -3 -20 -8 0 -6 -5 -7 -12 -2 -16 10 -78 11 -72 1 3 -5 0 -8 -5
-8 -6 0 -11 4 -11 8 0 5 -7 9 -15 9 -8 0 -12 -4 -9 -9 3 -4 0 -8 -5 -8 -6 0
-11 6 -11 13 0 8 -4 7 -10 -3 -8 -12 -10 -12 -10 -1 0 11 -3 11 -15 1 -14 -12
-19 -7 -16 13 1 5 -3 6 -9 2 -6 -3 -8 -11 -5 -16 4 -5 1 -9 -4 -9 -6 0 -11 5
-11 10 0 6 -5 10 -10 10 -6 0 -9 -3 -8 -7 2 -5 -1 -8 -7 -8 -5 0 -9 3 -7 8 2
6 -6 9 -24 6 -4 0 -11 5 -16 13 -6 9 -8 5 -4 -12 3 -14 3 -19 0 -12 -3 6 -10
12 -15 12 -6 0 -8 -3 -6 -7 3 -5 -5 -9 -18 -9 -23 -2 -23 -2 -5 19 11 11 16
25 13 31 -3 6 -3 8 2 4 4 -4 14 -3 22 4 11 9 13 8 11 -2 -4 -19 38 -21 53 -4
6 8 15 11 20 8 5 -3 9 4 9 16 0 19 1 20 16 6 17 -17 25 -20 23 -8 -1 4 2 17 6
30 6 17 13 22 26 19 11 -3 17 -2 14 3 -3 4 2 13 10 20 12 10 13 16 3 28 -11
13 -10 15 4 9 14 -5 17 -1 15 16 -1 17 2 21 18 18 20 -3 20 -3 0 20 l-20 23
30 -19 c21 -13 26 -14 18 -3 -7 8 -10 18 -6 21 3 4 0 13 -7 22 -11 13 -10 14
6 8 17 -6 18 -5 4 12 -9 12 -10 16 -2 11 9 -6 11 -1 8 19 -4 20 0 28 17 35 19
8 19 9 3 9 -15 1 -16 4 -6 16 7 8 17 12 23 8 6 -3 7 -1 3 6 -6 9 -11 9 -21 1
-10 -8 -15 -8 -21 1 -4 7 -3 9 3 6 6 -4 15 5 22 20 11 24 11 25 -5 12 -16 -13
-16 -12 -5 10 10 18 10 25 1 31 -9 6 -9 9 1 13 12 4 11 7 -1 16 -10 7 -11 11
-2 11 6 0 12 9 12 21 0 13 -4 18 -12 13 -10 -6 -10 -4 0 7 6 7 12 17 12 22 0
4 -6 5 -12 1 -10 -6 -10 -4 0 7 6 7 12 21 12 31 0 10 -6 18 -12 18 -9 0 -8 4
2 10 13 9 13 11 0 20 -10 6 -11 10 -2 10 6 0 12 9 12 21 0 13 -4 18 -12 13
-10 -6 -10 -4 -1 7 16 17 17 33 1 23 -6 -4 -4 3 5 15 14 22 13 56 -2 47 -4 -3
-7 4 -7 14 0 12 4 16 11 10 16 -14 13 33 -4 54 -12 15 -12 16 5 10 18 -5 18
-5 0 10 -11 9 -14 16 -8 16 7 0 12 7 12 15 0 8 -6 15 -12 15 -9 0 -9 3 1 9 12
8 12 12 2 25 -8 9 -10 16 -6 16 4 0 2 7 -5 15 -7 9 -20 15 -29 13 -9 -1 -22 1
-30 6 -10 6 -12 5 -7 -2 9 -14 9 -14 -32 -3 -21 6 -30 6 -26 0 3 -6 -6 -7 -23
-4 -15 4 -35 6 -43 6 -8 -1 -25 -1 -38 -1 -16 0 -21 -4 -16 -13 4 -6 -2 -3
-14 7 -12 11 -22 14 -22 9 0 -10 -50 -9 -78 2 -7 3 -10 0 -7 -5 4 -6 -3 -8
-17 -6 -13 3 -23 5 -23 6 0 1 -12 3 -26 4 -19 1 -25 -3 -22 -12 3 -7 0 -12 -8
-10 -8 2 -14 -8 -15 -25 -2 -19 1 -25 9 -20 9 5 9 3 1 -8 -15 -20 -16 -61 -1
-52 8 5 8 2 -1 -9 -15 -18 -6 -48 14 -48 8 0 14 -5 14 -11 0 -5 5 -7 10 -4 6
3 10 0 10 -7 0 -20 72 -18 88 1 11 14 11 14 6 -1 -6 -17 18 -20 33 -3 4 4 2 5
-6 0 -10 -6 -12 -4 -6 4 5 9 10 10 18 2 6 -6 16 -7 28 0 14 7 22 4 34 -13 l17
-23 -7 23 c-4 14 -2 22 6 22 7 0 9 -3 6 -7 -4 -3 1 -12 11 -20 9 -8 11 -11 3
-7 -10 5 -12 3 -5 -7 14 -23 15 -51 2 -67 -11 -13 -11 -14 1 -8 10 7 12 0 8
-32 -2 -22 1 -46 6 -51 6 -6 7 -11 1 -11 -5 0 -9 -43 -8 -100 0 -68 -3 -97
-10 -93 -6 4 -4 -2 4 -12 9 -11 10 -16 2 -11 -12 7 -14 1 -15 -41 0 -13 -4
-23 -10 -23 -6 0 -7 -3 -4 -6 10 -10 -25 -64 -41 -64 -7 0 -11 -4 -8 -9 6 -9
-22 -26 -36 -23 -5 1 -8 -3 -8 -9 0 -5 -5 -7 -10 -4 -6 3 -10 1 -10 -5 0 -6
-4 -8 -10 -5 -5 3 -10 1 -10 -5 0 -8 -6 -7 -21 1 -13 7 -19 7 -15 1 4 -6 -2
-10 -14 -9 -11 1 -20 6 -20 12 0 6 -3 7 -8 0 -10 -14 -32 -17 -32 -4 0 8 -5 8
-15 -1 -10 -9 -15 -9 -15 -1 0 6 -3 10 -7 10 -23 -4 -43 2 -38 11 3 6 -2 10
-12 10 -19 0 -60 39 -55 53 1 4 -2 7 -7 7 -5 0 -12 7 -15 16 -3 8 -2 12 4 9 6
-3 7 1 4 9 -3 9 -10 16 -15 16 -5 0 -9 5 -9 11 0 5 5 7 11 3 7 -4 10 -1 7 7
-3 8 -14 13 -24 12 -10 -1 -13 0 -6 3 15 7 16 34 1 34 -5 0 -7 5 -4 10 6 9 -8
14 -28 11 -4 0 -7 3 -7 8 0 10 -32 7 -50 -4 -6 -3 -10 -1 -10 6 0 10 -3 10
-11 2 -7 -7 -20 -8 -34 -3 -12 5 -28 4 -36 -1 -8 -5 -9 -9 -4 -9 6 0 3 -5 -5
-10 -11 -7 -11 -10 -2 -10 9 0 10 -5 3 -17 -7 -13 -5 -23 7 -37 9 -11 11 -16
5 -12 -7 4 -13 2 -13 -3 0 -6 5 -11 11 -11 8 0 7 -6 -2 -17 -9 -11 -10 -14 -2
-10 13 8 22 -15 26 -60 0 -12 5 -19 9 -17 5 3 5 11 2 17 -4 7 -3 9 1 5 5 -5
10 -20 11 -35 2 -15 11 -33 20 -40 9 -7 13 -17 8 -24 -5 -8 -3 -10 6 -4 10 6
12 4 7 -9 -4 -10 -3 -15 3 -11 5 3 18 1 27 -5 16 -10 16 -11 -2 -6 -20 5 -20
5 -1 -7 11 -7 29 -21 41 -32 12 -11 30 -27 41 -35 18 -14 18 -13 -1 9 l-20 24
23 -14 c12 -8 22 -17 22 -21 0 -5 7 -8 16 -8 9 0 12 5 8 12 -4 7 -3 8 5 4 6
-4 9 -12 5 -17 -3 -5 -1 -15 5 -22 6 -8 6 -18 1 -27 -9 -13 -10 -13 -10 0 0
13 -1 13 -10 0 -8 -12 -10 -12 -10 -1 0 11 -3 11 -15 1 -8 -7 -15 -8 -15 -3 0
5 -9 9 -19 9 -15 0 -17 -3 -9 -13 8 -10 7 -12 -6 -7 -9 3 -16 11 -16 18 0 6
-5 4 -10 -4 -8 -12 -10 -12 -10 -1 0 11 -3 11 -16 0 -13 -10 -17 -10 -25 2 -6
9 -12 10 -16 4 -10 -13 -47 -20 -39 -7 3 5 -1 9 -9 9 -8 0 -15 -5 -15 -11 0
-6 -4 -6 -11 1 -21 21 -39 3 -39 -41 0 -39 19 -93 20 -56 0 12 2 13 9 1 6 -8
20 -12 39 -9 20 3 28 0 26 -7 -3 -7 2 -12 10 -12 8 0 12 7 9 16 -3 11 0 10 11
-3 14 -18 21 -15 17 7 -1 5 3 6 8 3 5 -4 11 -3 14 1 2 5 2 2 1 -4 -2 -7 0 -13
4 -13 5 0 14 6 21 13 11 10 12 9 6 -2 -6 -11 -4 -13 8 -8 10 4 29 2 43 -3 14
-6 23 -6 20 -1 -9 15 31 19 56 7 18 -10 27 -9 46 2 21 13 22 13 15 -4 -6 -18
-6 -18 14 -1 16 14 23 15 29 6 5 -8 3 -10 -6 -4 -8 5 -11 4 -6 -3 4 -6 13 -9
21 -6 8 4 13 9 11 13 -2 3 6 6 19 6 19 0 21 -3 12 -15 -9 -11 -5 -10 15 3 26
16 27 16 21 0 -6 -15 -4 -16 8 -6 12 10 18 10 28 0 10 -9 11 -8 5 6 -5 15 -3
16 19 8 14 -5 27 -7 30 -4 3 3 20 0 37 -5 18 -7 28 -7 25 -2 -4 6 0 10 7 11 7
0 25 2 39 3 16 1 25 -3 22 -10 -2 -6 3 -11 11 -11 8 0 12 7 9 16 -3 11 0 10
11 -3 14 -18 21 -15 17 7 -1 5 3 6 8 3 5 -4 11 -3 14 1 2 5 2 2 1 -4 -4 -17 8
-17 25 0 9 7 11 7 8 1 -4 -8 2 -12 16 -11 12 0 34 -3 49 -6 15 -3 30 -2 33 3
3 5 -4 7 -16 5 -12 -2 -19 -1 -15 3 12 11 66 9 56 -3 -10 -12 44 -14 56 -3 4
4 -4 5 -16 3 -12 -2 -20 -1 -16 2 12 12 74 9 69 -3 -2 -6 3 -11 11 -11 8 0 12
7 9 16 -3 11 0 10 11 -3 14 -18 21 -15 17 7 -1 5 3 6 8 3 5 -4 11 -3 14 1 2 5
2 2 1 -4 -2 -7 0 -13 4 -13 5 0 14 6 21 13 9 7 11 7 8 1 -4 -8 2 -12 16 -11
12 0 34 -3 49 -6 15 -3 30 -2 33 3 3 5 -4 7 -16 5 -12 -2 -19 -1 -15 2 10 10
86 10 80 1 -3 -5 -9 -6 -14 -3 -5 3 -11 1 -15 -4 -3 -6 3 -8 15 -6 30 6 41 15
34 27 -4 7 -2 8 4 4 6 -4 8 -14 5 -24 -6 -15 -5 -15 10 -3 10 8 20 11 23 8 3
-3 19 -1 36 3 27 8 28 7 16 -7 -12 -14 -10 -14 19 1 31 15 32 15 26 -1 -6 -16
-5 -16 10 -4 9 7 23 11 31 8 7 -3 18 -1 24 5 6 6 12 6 17 -3 6 -8 4 -10 -5 -4
-8 5 -11 4 -6 -3 4 -6 13 -9 21 -6 8 4 13 9 10 13 -6 10 33 7 42 -4 5 -4 2 -5
-4 -1 -7 4 -13 2 -13 -4 0 -7 7 -9 16 -6 9 3 18 6 20 6 3 0 3 4 0 8 -9 14 43
3 78 -16 5 -3 6 0 2 6 -4 7 -1 12 6 13 7 0 27 2 45 3 18 1 30 -1 27 -6 -3 -5
-9 -6 -14 -3 -5 3 -11 1 -15 -4 -3 -6 3 -8 15 -6 30 6 41 15 34 27 -4 7 -2 8
4 4 6 -4 8 -14 5 -24 -5 -14 -3 -14 17 3 13 11 20 14 16 8 -9 -17 6 -17 23 -1
11 10 13 10 7 1 -5 -9 0 -12 16 -10 15 1 22 -3 20 -11 -1 -8 2 -11 8 -7 6 3 8
10 5 15 -2 4 6 10 20 12 22 5 24 3 13 -11 -11 -13 -8 -13 15 2 24 16 28 16 33
2 3 -8 10 -12 15 -9 5 3 7 9 5 13 -3 4 1 8 9 8 8 0 12 -4 9 -9 -6 -10 10 -11
19 -1 4 3 20 7 36 7 25 1 27 -1 18 -14 -9 -10 -4 -10 16 3 24 16 28 16 33 2 3
-8 10 -12 15 -9 5 3 7 9 5 13 -3 4 1 8 9 8 8 0 12 -4 9 -9 -8 -12 10 -10 23 3
9 9 19 8 39 -6 14 -9 23 -12 20 -6 -5 7 2 11 19 11 15 0 24 -4 20 -10 -3 -6 1
-7 9 -4 9 3 14 9 11 13 -5 9 32 7 41 -1 3 -4 12 -4 20 -1 8 3 21 0 28 -6 11
-9 16 -9 22 0 5 8 3 9 -6 4 -8 -5 -11 -4 -7 1 7 12 54 11 64 -1 5 -4 1 -5 -7
0 -8 5 -12 4 -7 0 12 -13 48 -14 38 -1 -6 7 -1 12 16 13 20 1 23 -1 12 -9 -10
-7 -8 -9 9 -5 12 3 22 1 22 -5 0 -5 5 -6 10 -3 6 4 7 12 3 18 -3 7 2 4 13 -5
14 -12 24 -14 37 -7 22 13 98 19 91 7 -3 -4 -9 -6 -14 -3 -5 3 -11 1 -15 -4
-3 -6 3 -8 15 -6 30 6 41 15 34 27 -4 7 -2 8 4 4 6 -4 8 -14 5 -24 -5 -14 -3
-14 17 3 13 11 20 14 16 8 -10 -18 4 -16 28 5 17 14 18 14 8 1 -11 -15 -9 -17
13 -15 14 0 25 6 25 11 0 6 5 3 10 -5 6 -9 10 -11 10 -3 0 8 7 10 18 6 15 -6
16 -5 2 12 -9 11 -10 16 -2 11 6 -4 12 -3 12 3 0 5 -5 13 -10 16 -8 5 -7 11 1
21 9 11 8 14 -5 14 -9 0 -16 5 -16 11 0 5 6 7 13 3 9 -6 9 -5 0 7 -7 9 -23 15
-35 14 -13 -1 -29 3 -37 9 -11 8 -13 8 -8 -1 11 -18 -17 -22 -31 -4 -10 14
-11 13 -5 -4 6 -17 4 -18 -8 -8 -12 10 -18 10 -27 1 -9 -9 -12 -9 -12 0 0 7
-5 12 -11 12 -5 0 -8 -3 -6 -8 3 -4 -8 -7 -23 -7 -16 -1 -26 3 -24 7 3 4 1 8
-4 8 -5 0 -14 12 -20 26 -10 20 -9 24 0 18 19 -12 56 -11 51 2 -2 6 4 17 13
25 10 8 15 9 11 3 -4 -7 0 -15 9 -18 10 -4 13 -2 8 6 -5 8 -1 9 12 5 18 -7 18
-6 -1 9 -20 16 -20 16 3 11 15 -3 22 -1 22 10 0 9 -5 11 -12 7 -9 -5 -8 -2 1
9 11 13 17 15 28 6 7 -7 16 -9 20 -5 3 3 1 6 -6 6 -7 0 -9 5 -6 10 4 6 12 7
18 3 7 -4 6 0 -2 10 -12 15 -11 17 5 17 16 0 17 2 4 10 -13 9 -13 10 0 11 8 1
17 1 21 1 3 0 5 10 5 24 0 16 -5 23 -12 20 -17 -6 -6 25 13 40 11 10 11 13 -3
18 -11 4 -13 10 -6 19 12 16 12 47 -1 47 -6 0 -7 3 -4 7 4 3 2 12 -4 19 -7 8
-6 14 2 20 8 4 9 3 5 -4 -4 -7 -2 -12 3 -12 14 0 14 17 0 25 -6 4 -8 14 -5 22
4 8 1 11 -5 8 -6 -4 -13 2 -16 14 -3 12 -9 21 -14 21 -5 0 -9 5 -9 11 0 5 6 7
13 3 6 -4 3 2 -8 13 -11 11 -23 19 -27 16 -5 -2 -8 1 -8 7 0 6 -7 18 -15 26
-8 9 -15 13 -15 9 0 -3 -13 3 -30 15 -16 12 -30 18 -30 13 0 -4 -4 -2 -8 4 -5
7 -20 14 -35 15 -15 1 -27 6 -27 11 0 5 -7 7 -15 4 -8 -4 -17 -2 -20 4 -4 5
-11 7 -16 4 -5 -4 -9 -1 -9 5 0 6 -5 8 -12 3 -19 -11 -38 -13 -38 -2 0 4 -7 5
-17 2 -11 -4 -14 -3 -9 5 5 9 1 9 -18 2 -16 -6 -27 -6 -31 1 -4 5 -11 7 -16 4
-5 -4 -9 2 -10 12 0 10 -3 13 -5 6 -4 -8 -14 -9 -34 -3 -16 4 -31 6 -34 2 -3
-3 -6 0 -6 7 0 7 -4 9 -10 6 -5 -3 -10 1 -10 9 0 8 -10 22 -22 30 -19 13 -20
18 -9 28 11 11 12 10 6 -2 -8 -13 -7 -13 8 -1 18 14 22 22 10 20 -25 -4 -24 4
2 22 17 12 22 19 13 15 -12 -3 -18 0 -18 9 0 21 22 30 34 13 14 -20 33 -2 28
27 -2 17 -1 17 11 -4 13 -22 14 -22 19 -4 3 11 13 20 22 21 9 1 24 3 34 3 9 1
24 7 32 12 12 9 13 9 3 -3 -18 -20 -16 -35 2 -20 18 15 32 6 19 -13 -5 -7 -2
-6 6 3 17 17 46 20 43 3 -1 -5 9 -15 22 -21 21 -10 23 -9 18 5 -4 11 -3 14 5
9 7 -4 12 -15 13 -24 0 -11 2 -13 6 -4 4 9 10 7 22 -7 10 -12 21 -18 25 -14 3
3 6 -1 6 -10 0 -20 26 -23 33 -4 4 7 6 6 6 -5 1 -9 -4 -19 -9 -21 -6 -3 -5 -4
2 -3 7 1 15 13 19 27 5 17 7 19 8 6 1 -10 5 -16 10 -13 5 4 12 0 14 -6 3 -7 6
0 6 16 1 28 2 29 15 11 13 -18 14 -18 12 5 0 13 5 25 12 27 6 3 12 0 12 -7 0
-6 -4 -8 -10 -5 -6 4 -7 -1 -3 -11 5 -14 8 -13 19 7 7 13 15 23 19 21 4 -2 10
0 13 4 4 4 1 4 -5 0 -7 -4 -13 -2 -13 4 0 6 -5 8 -11 4 -8 -4 -8 0 0 15 10 17
9 22 -4 27 -8 3 -12 10 -9 15 3 5 -2 9 -10 9 -10 0 -13 6 -9 15 3 10 0 15 -8
13 -7 -2 -13 2 -14 9 0 6 -4 15 -9 20 -5 5 -6 3 -2 -4 4 -7 3 -13 -2 -13 -5 0
-12 9 -15 20 -3 11 -12 20 -21 20 -9 0 -16 4 -16 9 0 5 -10 7 -22 3 -14 -3
-19 -1 -14 6 7 11 -16 21 -62 27 -15 1 -26 7 -25 12 1 5 -49 10 -110 11 -75 1
-107 -2 -97 -8 20 -13 4 -13 -20 0 -15 8 -23 5 -40 -12z m-1220 -32 c0 -2 -7
-7 -16 -10 -8 -3 -12 -2 -9 4 6 10 25 14 25 6z m163 -51 c-3 -9 -8 -14 -10
-11 -3 3 -2 9 2 15 9 16 15 13 8 -4z m-738 -126 c3 -3 -6 -5 -19 -5 -14 1 -28
4 -31 7 -3 3 6 5 19 5 14 -1 28 -4 31 -7z m1775 -29 c0 -5 -5 -10 -11 -10 -5
0 -7 5 -4 10 3 6 8 10 11 10 2 0 4 -4 4 -10z m-30 -286 c0 -8 -19 -13 -24 -6
-3 5 1 9 9 9 8 0 15 -2 15 -3z m31 -17 c-1 -12 -15 -9 -19 4 -3 6 1 10 8 8 6
-3 11 -8 11 -12z m569 -283 c0 -8 -19 -13 -24 -6 -3 5 1 9 9 9 8 0 15 -2 15
-3z m-1020 -59 c0 -12 -19 -12 -23 0 -4 9 -1 12 9 8 7 -3 14 -7 14 -8z m-1051
-12 c-6 -7 -15 -10 -20 -7 -13 8 -3 21 15 21 12 0 13 -4 5 -14z m-56 -38 c4
-8 3 -16 -1 -19 -4 -3 -9 4 -9 15 -2 23 3 25 10 4z m-43 -25 c0 -5 -5 -10 -11
-10 -5 0 -7 5 -4 10 3 6 8 10 11 10 2 0 4 -4 4 -10z m-32 -26 c-4 -11 -28 -14
-28 -4 0 8 22 20 28 14 2 -1 2 -6 0 -10z m-308 -34 c0 -6 5 -10 11 -10 5 0 7
5 4 10 -3 6 -2 10 4 10 22 0 6 -35 -16 -36 -20 -2 -23 2 -18 20 5 18 4 18 -10
-4 -9 -14 -14 -17 -11 -8 3 10 1 20 -5 23 -5 4 -7 11 -4 16 7 11 45 -7 45 -21z
m2283 16 c9 3 20 -2 26 -14 17 -33 -18 -38 -46 -8 -25 27 -31 45 -9 27 7 -6
20 -9 29 -5z m-2216 -10 c-3 -8 -3 -17 1 -19 4 -2 1 -2 -7 0 -8 2 -11 -2 -7
-12 3 -9 2 -13 -3 -10 -6 3 -9 14 -8 25 1 10 5 16 9 14 4 -3 8 0 8 5 0 6 3 11
6 11 3 0 4 -6 1 -14z m109 5 c-4 -5 0 -11 6 -14 7 -3 4 -5 -7 -6 -44 -2 -55
-5 -55 -14 0 -6 -2 -8 -5 -5 -3 3 -2 13 1 22 5 14 9 15 15 4 7 -10 9 -11 9 0
0 7 4 11 9 7 5 -3 12 -1 16 5 3 5 8 10 11 10 3 0 3 -4 0 -9z m37 -8 c-3 -7 -6
-13 -8 -13 -2 0 -5 6 -8 13 -3 8 1 14 8 14 7 0 11 -6 8 -14z m1037 -4 c5 10 9
9 13 -2 3 -9 -2 -21 -11 -29 -10 -8 -13 -8 -9 -1 4 6 3 14 -3 18 -5 3 -9 14
-9 23 1 14 2 14 6 -2 4 -13 7 -15 13 -7z m783 8 c4 3 7 1 7 -6 0 -7 -6 -11
-12 -8 -7 2 -19 -3 -26 -12 -11 -14 -12 -13 -3 5 6 12 7 25 3 30 -4 5 0 3 9
-4 9 -6 19 -9 22 -5z m-1923 -3 c0 -8 -19 -13 -24 -6 -3 5 1 9 9 9 8 0 15 -2
15 -3z m1044 -9 c-4 -8 -8 -15 -10 -15 -2 0 -4 7 -4 15 0 8 4 15 10 15 5 0 7
-7 4 -15z m56 5 c-12 -8 -13 -10 -1 -10 8 0 12 -2 9 -5 -7 -7 -38 5 -38 14 0
4 10 8 22 8 18 2 20 0 8 -7z m950 0 c0 -5 -5 -10 -11 -10 -5 0 -7 5 -4 10 3 6
8 10 11 10 2 0 4 -4 4 -10z m60 -24 c0 -5 -8 -2 -18 7 -10 10 -22 14 -27 10
-4 -5 -5 -2 -1 4 5 10 11 10 26 0 11 -6 20 -16 20 -21z m25 14 c10 -11 14 -20
9 -20 -5 0 -15 9 -22 20 -7 11 -11 20 -9 20 2 0 12 -9 22 -20z m-185 -10 c0
-5 -5 -10 -11 -10 -5 0 -7 5 -4 10 3 6 8 10 11 10 2 0 4 -4 4 -10z m240 -104
c0 -3 -4 -8 -10 -11 -5 -3 -10 -1 -10 4 0 6 5 11 10 11 6 0 10 -2 10 -4z"/>
<path d="M2626 1602 c-3 -6 -1 -14 5 -17 15 -10 25 3 12 16 -7 7 -13 7 -17 1z"/>
<path d="M1905 2501 c-6 -11 9 -23 19 -14 9 9 7 23 -3 23 -6 0 -12 -4 -16 -9z"/>
<path d="M2429 2433 c-12 -16 -12 -17 2 -6 9 7 20 9 24 5 5 -4 5 -1 1 6 -9 16
-11 15 -27 -5z"/>
<path d="M2535 2429 c-4 -6 -5 -12 -2 -15 2 -3 7 2 10 11 7 17 1 20 -8 4z"/>
<path d="M1267 2399 c7 -7 15 -10 18 -7 3 3 -2 9 -12 12 -14 6 -15 5 -6 -5z"/>
<path d="M588 2383 c7 -3 16 -2 19 1 4 3 -2 6 -13 5 -11 0 -14 -3 -6 -6z"/>
<path d="M1267 2279 c7 -7 15 -10 18 -7 3 3 -2 9 -12 12 -14 6 -15 5 -6 -5z"/>
<path d="M1905 2261 c-6 -11 13 -26 22 -17 4 3 0 6 -8 6 -11 0 -11 2 1 10 9 6
10 10 3 10 -6 0 -14 -4 -18 -9z"/>
<path d="M1916 2198 c3 -5 10 -6 15 -3 13 9 11 12 -6 12 -8 0 -12 -4 -9 -9z"/>
<path d="M1267 2159 c7 -7 15 -10 18 -7 3 3 -2 9 -12 12 -14 6 -15 5 -6 -5z"/>
<path d="M1905 2141 c-6 -11 13 -26 22 -17 4 3 0 6 -8 6 -11 0 -11 2 1 10 9 6
10 10 3 10 -6 0 -14 -4 -18 -9z"/>
<path d="M1916 2078 c3 -5 10 -6 15 -3 13 9 11 12 -6 12 -8 0 -12 -4 -9 -9z"/>
<path d="M1260 2056 c0 -2 8 -10 18 -17 15 -13 16 -12 3 4 -13 16 -21 21 -21
13z"/>
<path d="M1909 1938 c-5 -9 -5 -48 -1 -43 6 6 11 45 5 45 -2 0 -4 -1 -4 -2z"/>
<path d="M875 1900 c3 -5 8 -10 11 -10 2 0 4 5 4 10 0 6 -5 10 -11 10 -5 0 -7
-4 -4 -10z"/>
<path d="M2860 1838 c0 -4 4 -8 9 -8 6 0 12 4 15 8 3 5 -1 9 -9 9 -8 0 -15 -4
-15 -9z"/>
<path d="M1721 1646 c-10 -11 -9 -14 1 -12 14 2 23 15 15 22 -2 2 -10 -2 -16
-10z"/>
<path d="M589 1603 c-13 -16 -12 -17 4 -4 9 7 17 15 17 17 0 8 -8 3 -21 -13z"/>
<path d="M1376 1602 c-3 -5 1 -9 9 -9 8 0 12 4 9 9 -3 4 -7 8 -9 8 -2 0 -6 -4
-9 -8z"/>
<path d="M2307 1599 c7 -7 15 -10 18 -7 3 3 -2 9 -12 12 -14 6 -15 5 -6 -5z"/>
<path d="M2230 1466 c0 -2 7 -7 16 -10 8 -3 12 -2 9 4 -6 10 -25 14 -25 6z"/>
<path d="M430 1403 c0 -10 -3 -14 -8 -8 -6 10 -14 11 -50 7 -7 -1 -11 -6 -8
-11 3 -4 -6 -7 -20 -5 -32 3 -56 -5 -48 -17 3 -5 -2 -6 -10 -3 -9 3 -16 2 -16
-4 0 -5 -11 -13 -25 -16 -14 -4 -25 -11 -25 -17 0 -6 -4 -7 -10 -4 -5 3 -10
-1 -10 -10 0 -9 -5 -13 -10 -10 -6 3 -13 -1 -16 -9 -3 -9 -11 -13 -17 -9 -5 3
-7 1 -4 -4 4 -6 0 -16 -8 -23 -8 -7 -15 -19 -15 -26 0 -8 -5 -14 -11 -14 -5 0
-7 -4 -4 -10 3 -5 1 -10 -4 -10 -6 0 -10 -3 -9 -7 2 -12 -12 -66 -23 -87 -7
-12 -7 -16 0 -12 7 4 8 1 5 -8 -3 -9 -11 -13 -16 -10 -6 4 -5 -3 1 -15 9 -16
9 -21 -1 -21 -8 -1 -6 -6 5 -14 10 -8 19 -23 20 -33 0 -11 7 -20 14 -20 10 0
10 4 3 11 -5 5 -10 14 -10 19 0 11 22 -11 38 -38 12 -19 12 -19 10 4 -2 13 3
25 10 27 7 1 8 0 2 -3 -5 -2 -7 -9 -4 -14 3 -6 11 -5 20 2 17 14 19 -2 2 -21
-7 -8 0 -4 16 10 16 14 26 20 22 13 -3 -6 -1 -15 5 -19 8 -4 9 -3 5 4 -4 7 -2
12 4 12 6 0 9 4 6 9 -3 4 6 7 19 5 28 -3 42 11 24 22 -8 5 -9 3 -4 -6 5 -9 4
-11 -3 -6 -8 5 -9 13 -2 25 5 10 7 21 4 24 -3 3 -1 14 6 24 10 16 10 16 5 -4
-3 -12 -2 -24 3 -27 5 -3 8 9 7 25 -1 17 -7 34 -14 39 -9 5 -8 9 6 15 10 5 24
7 31 6 6 -1 12 5 12 14 0 10 -5 13 -12 9 -6 -4 -8 -3 -5 4 4 5 18 9 32 7 20
-2 23 0 14 12 -10 11 -8 12 6 7 14 -6 16 -4 10 7 -5 8 -1 7 12 -4 16 -14 20
-14 20 -2 0 8 -4 12 -9 9 -4 -3 -8 0 -8 5 0 6 8 12 18 12 19 1 34 5 42 9 10 5
88 5 85 0 -2 -3 6 -12 18 -20 21 -12 21 -12 7 5 -14 17 -13 18 3 12 10 -4 21
-7 23 -7 3 0 2 -6 -2 -12 -6 -10 -4 -10 8 0 14 11 17 10 20 -5 2 -10 11 -18
21 -18 9 0 18 -4 18 -10 3 -13 32 -34 41 -29 3 2 5 -4 4 -13 -2 -10 4 -24 13
-31 12 -10 12 -12 1 -6 -13 7 -13 5 -1 -9 7 -9 10 -17 6 -17 -4 0 -3 -6 4 -13
8 -10 7 -17 -1 -25 -9 -9 -9 -12 1 -12 10 0 11 -3 2 -14 -9 -10 -9 -16 -1 -21
8 -5 8 -11 -1 -21 -9 -11 -9 -14 0 -14 8 0 9 -5 2 -19 -6 -10 -7 -21 -4 -25
10 -10 12 -36 4 -36 -9 0 -7 -37 2 -46 4 -4 2 -13 -4 -21 -9 -9 -8 -13 0 -13
8 0 9 -5 1 -19 -7 -14 -7 -22 1 -27 8 -4 7 -9 -2 -15 -10 -6 -11 -9 -1 -9 14
0 12 -21 -3 -32 -6 -5 -5 -8 3 -8 7 0 10 -4 7 -10 -3 -5 -15 -10 -26 -10 -10
0 -19 -5 -19 -11 0 -5 -5 -7 -10 -4 -6 4 -8 10 -6 14 3 4 -15 7 -39 6 -24 0
-41 -3 -39 -7 2 -4 0 -9 -6 -13 -5 -3 -10 -1 -10 6 0 8 -5 7 -17 -2 -9 -8 -14
-9 -10 -3 4 7 0 15 -9 18 -22 9 -24 8 -24 -10 0 -8 -5 -12 -10 -9 -6 4 -8 9
-6 13 2 4 -6 7 -19 7 -13 0 -21 -3 -19 -7 3 -4 -6 -17 -18 -29 -13 -12 -17
-18 -9 -14 10 6 11 2 6 -15 -4 -13 -3 -20 2 -17 5 3 9 -3 9 -13 0 -15 -3 -17
-15 -7 -12 10 -13 9 -3 -10 15 -28 15 -36 0 -27 -10 6 -10 5 -1 -8 7 -8 9 -19
5 -23 -4 -5 -2 -5 5 -2 6 4 13 2 15 -3 2 -6 14 -12 28 -14 45 -6 90 -18 90
-26 0 -3 6 -7 14 -7 8 0 12 6 9 14 -3 7 -8 11 -12 9 -4 -3 -13 0 -21 5 -12 7
-10 8 7 6 11 -2 28 -9 37 -16 9 -7 16 -10 16 -6 0 4 7 2 15 -5 10 -9 15 -9 15
-1 0 6 9 11 20 11 11 0 20 -4 20 -8 0 -5 6 -9 14 -9 8 0 12 6 9 14 -3 7 -8 11
-12 9 -4 -3 -13 0 -21 5 -12 7 -10 8 7 6 11 -2 28 -9 36 -15 12 -10 17 -10 23
-1 4 8 3 9 -4 5 -8 -5 -10 -1 -5 9 4 13 8 14 14 4 4 -7 6 -16 3 -20 -2 -4 0
-10 6 -14 5 -3 10 2 10 12 1 17 2 16 16 -2 15 -19 15 -19 10 8 -4 22 -2 26 7
19 7 -6 17 -11 22 -12 6 -1 9 -9 8 -18 -1 -10 0 -11 3 -4 3 6 11 9 16 6 7 -4
8 -2 4 4 -9 15 -5 15 31 1 32 -12 33 -12 33 -1 0 4 -4 7 -10 7 -5 0 -10 3 -10
8 0 4 0 9 0 12 0 3 9 1 20 -5 16 -9 18 -8 14 5 -4 8 -10 15 -14 15 -4 0 -7 14
-6 30 0 18 5 29 12 26 8 -3 10 3 6 16 -4 16 -2 19 9 13 11 -7 11 -5 -1 11 -8
10 -19 22 -25 26 -6 5 -5 8 3 8 6 0 12 8 12 18 0 14 -2 15 -10 2 -7 -12 -9
-10 -7 8 1 12 6 21 12 18 10 -3 12 26 5 59 -6 28 1 56 13 49 13 -9 -11 26 -28
38 -6 5 -5 8 3 8 6 0 12 8 12 18 0 14 -2 15 -10 2 -7 -12 -9 -10 -7 8 1 12 6
21 12 18 16 -6 10 55 -7 65 -10 7 -10 9 0 9 6 0 12 8 12 18 0 14 -2 15 -10 2
-7 -12 -9 -10 -7 8 1 14 6 21 15 17 7 -2 11 -1 7 4 -3 5 -2 11 2 14 5 2 2 2
-4 1 -16 -4 -17 8 -1 24 9 9 7 13 -5 18 -11 4 -17 18 -17 41 0 19 -4 32 -8 29
-5 -3 -9 9 -9 26 0 18 -5 34 -11 36 -7 2 -12 13 -12 23 0 11 -4 18 -8 15 -4
-2 -14 9 -21 25 -7 16 -17 26 -23 23 -7 -4 -8 -2 -4 5 4 6 0 18 -8 27 -9 8
-16 12 -16 8 0 -4 -7 1 -16 12 -8 10 -12 12 -8 4 3 -8 -7 0 -25 18 -17 18 -31
28 -31 21 0 -7 -6 -5 -13 6 -8 10 -19 15 -25 11 -7 -4 -12 -3 -12 3 0 6 -7 7
-17 4 -11 -4 -14 -3 -9 5 5 8 2 10 -8 6 -10 -4 -16 -1 -16 7 0 11 -3 11 -10
-1 -8 -12 -10 -12 -10 5 0 15 -2 17 -9 6 -7 -11 -9 -11 -14 0 -3 8 -6 10 -6 4
-1 -11 -62 -12 -79 -1 -7 4 -12 2 -12 -4 0 -8 -6 -8 -20 0 -17 9 -20 8 -20 -7z
m500 -367 c0 -2 -7 -7 -16 -10 -8 -3 -12 -2 -9 4 6 10 25 14 25 6z m-5 -125
c3 -5 2 -12 -3 -15 -5 -3 -9 1 -9 9 0 17 3 19 12 6z m5 -125 c0 -3 -4 -8 -10
-11 -5 -3 -10 -1 -10 4 0 6 5 11 10 11 6 0 10 -2 10 -4z m-11 -70 c9 -11 9
-16 -1 -22 -7 -4 -10 -4 -6 1 4 4 3 14 -3 22 -6 7 -9 13 -6 13 2 0 10 -6 16
-14z m-278 -250 c5 3 9 1 9 -5 0 -5 -9 -9 -19 -8 -12 1 -17 6 -13 16 4 10 7
11 10 3 2 -7 8 -10 13 -6z"/>
<path d="M1443 1409 c-13 -5 -23 -5 -23 -1 0 4 -5 0 -10 -8 -9 -13 -10 -13
-10 0 0 12 -2 12 -9 2 -4 -7 -15 -14 -23 -16 -9 -1 -23 -8 -32 -15 -9 -8 -19
-11 -23 -7 -3 3 -1 6 5 6 7 0 12 6 12 13 -1 6 -9 2 -19 -10 -10 -12 -21 -19
-25 -16 -3 4 -6 1 -6 -6 0 -7 -4 -10 -9 -7 -5 3 -12 -1 -15 -9 -3 -8 -11 -14
-18 -13 -7 2 -12 -2 -13 -7 0 -6 -14 -25 -32 -42 -17 -17 -29 -33 -26 -36 3
-3 -4 -11 -15 -18 -11 -7 -18 -19 -15 -26 3 -7 0 -20 -7 -28 -6 -8 -8 -20 -4
-26 5 -8 3 -9 -6 -4 -10 6 -12 4 -7 -8 3 -10 3 -17 -1 -17 -4 0 -6 -15 -6 -32
1 -18 -3 -38 -8 -45 -5 -7 -5 -14 2 -18 5 -3 10 -11 10 -16 0 -6 -4 -8 -8 -5
-5 3 -9 -1 -9 -9 0 -8 4 -12 9 -9 4 3 8 -2 8 -11 0 -10 -5 -13 -12 -9 -9 5 -9
2 1 -9 7 -9 10 -17 6 -17 -4 0 -1 -8 6 -17 11 -13 11 -15 1 -9 -10 6 -13 3
-12 -10 1 -11 1 -21 0 -24 -7 -18 -5 -50 3 -50 6 0 7 -3 4 -7 -4 -3 -1 -13 6
-21 10 -13 9 -14 -1 -8 -10 6 -13 3 -12 -10 1 -11 1 -21 0 -24 -7 -18 -5 -50
3 -50 6 0 7 -3 4 -7 -4 -3 -1 -13 6 -21 10 -13 9 -14 -1 -8 -10 6 -13 3 -12
-10 1 -11 1 -21 0 -24 -7 -16 -6 -58 2 -54 4 3 8 -2 8 -11 0 -10 -5 -13 -12
-9 -10 6 -10 4 0 -8 9 -12 10 -18 2 -23 -8 -5 -8 -11 0 -20 7 -8 9 -19 6 -24
-4 -6 2 -8 15 -6 18 4 19 2 7 -12 -10 -13 -10 -15 0 -9 7 4 23 1 37 -8 15 -10
26 -12 30 -6 3 6 5 10 3 11 -2 0 -11 2 -21 4 -36 7 -27 12 15 10 24 -2 45 -4
48 -5 3 -1 9 -2 13 -1 5 1 6 -3 3 -8 -11 -18 12 -21 25 -4 10 12 10 14 2 9 -7
-4 -13 -2 -13 3 0 10 29 16 53 12 5 -1 6 3 2 8 -3 6 -12 8 -20 5 -14 -6 -15
12 -2 34 5 7 3 12 -3 12 -7 0 -5 7 4 16 9 8 14 20 11 25 -8 13 -16 11 -12 -2
1 -6 -5 -14 -13 -16 -13 -4 -13 -3 0 6 8 6 11 11 6 11 -5 0 -3 6 3 14 10 11 9
16 -5 24 -15 8 -15 9 0 15 11 5 15 3 10 -5 -4 -7 -3 -8 4 -4 9 5 8 14 -4 31
-11 17 -12 25 -3 30 8 6 8 10 -2 16 -11 7 -10 9 3 9 21 0 32 16 17 26 -8 4 -9
3 -5 -4 4 -7 1 -12 -8 -12 -18 0 -21 16 -5 26 8 4 7 9 -2 15 -11 7 -11 9 1 9
13 0 13 1 0 10 -8 5 -10 10 -4 10 16 0 26 28 13 35 -5 4 -8 1 -7 -6 2 -6 -4
-14 -12 -16 -13 -4 -13 -3 0 6 8 6 11 11 5 11 -5 0 -4 5 3 12 14 14 16 32 3
23 -9 -5 -9 3 3 63 3 12 0 22 -6 22 -5 0 -7 8 -4 17 4 9 2 20 -4 23 -8 5 -6 9
5 13 11 5 14 3 9 -6 -4 -6 -3 -8 1 -4 12 10 15 38 4 31 -5 -3 -9 -2 -10 3 0 4
-2 17 -3 29 -1 11 3 21 10 21 9 0 10 -5 3 -18 -7 -14 -6 -17 5 -13 17 7 15 26
-4 50 -14 16 -13 16 10 4 l25 -13 -20 23 c-11 13 -14 20 -7 16 11 -7 17 6 13
28 -1 5 6 3 15 -5 16 -13 16 -12 6 7 -9 18 -8 24 5 35 9 8 14 9 10 3 -12 -21
21 -23 38 -4 10 11 22 17 28 13 6 -3 7 -1 3 6 -6 9 -11 9 -22 0 -12 -10 -13
-9 -8 4 4 12 16 15 45 12 21 -2 41 0 44 5 4 6 -2 7 -12 3 -10 -3 -15 -3 -12 1
11 12 48 15 55 4 5 -7 2 -8 -6 -3 -9 5 -11 4 -6 -4 4 -6 13 -8 19 -4 7 4 15 8
20 9 4 1 8 2 10 3 1 2 13 4 27 7 18 3 21 2 10 -5 -8 -5 -19 -7 -25 -4 -5 4 -6
2 -2 -3 4 -4 23 -7 42 -5 20 1 44 -4 57 -13 12 -9 19 -16 15 -16 -4 0 2 -10
14 -22 26 -28 41 -66 33 -80 -4 -6 -3 -8 2 -5 6 3 11 -26 12 -74 1 -59 -2 -78
-11 -74 -7 4 -3 -1 7 -9 11 -9 14 -16 8 -16 -7 0 -12 -9 -12 -21 0 -12 4 -17
11 -13 8 5 8 1 0 -14 -8 -15 -8 -22 2 -25 9 -4 9 -6 0 -6 -7 -1 -13 -10 -13
-22 0 -11 4 -18 8 -15 4 2 8 -4 8 -15 0 -10 -7 -19 -16 -19 -12 0 -12 -2 -2
-9 8 -4 13 -17 12 -27 -1 -11 -1 -21 0 -24 1 -3 3 -15 4 -27 2 -15 -2 -19 -13
-15 -14 5 -14 3 -3 -11 8 -9 11 -21 7 -27 -3 -5 0 -10 7 -11 7 0 4 -4 -7 -9
-11 -5 -14 -9 -7 -9 7 -1 11 -12 10 -29 -1 -15 2 -34 7 -41 5 -10 4 -12 -3 -7
-7 4 -12 2 -12 -3 0 -6 5 -11 11 -11 5 0 7 -6 3 -12 -5 -8 0 -7 11 2 10 8 16
10 12 4 -9 -16 12 -23 59 -18 25 2 34 0 25 -5 -8 -5 -22 -8 -32 -6 -13 3 -16
-1 -12 -13 5 -11 8 -12 11 -4 3 10 7 10 20 0 12 -10 14 -10 8 0 -10 16 25 16
43 -1 8 -6 11 -7 8 -1 -4 6 3 20 15 30 21 19 21 19 9 -3 -7 -15 -8 -24 -1 -28
6 -4 10 -3 9 2 -3 13 13 43 20 38 10 -6 7 32 -3 42 -4 5 -6 2 -4 -6 2 -7 -4
-16 -12 -18 -12 -4 -12 -3 -2 5 16 11 15 21 -1 41 -9 12 -9 13 1 7 10 -6 13 4
11 46 -1 29 -7 60 -13 68 -10 13 -9 13 8 0 11 -8 17 -10 13 -4 -3 5 -7 32 -8
60 -1 27 -7 55 -13 63 -8 11 -8 13 2 7 10 -6 13 4 11 46 -1 29 -7 60 -13 68
-10 13 -9 13 8 0 11 -8 17 -10 14 -5 -3 6 -7 30 -9 55 -2 25 -8 48 -14 52 -6
5 -6 8 3 8 7 0 12 14 12 35 0 28 -3 33 -17 29 -11 -4 -14 -3 -7 3 15 12 12 66
-5 79 -8 6 -11 18 -8 27 4 10 2 16 -5 14 -7 -1 -13 4 -14 11 -1 6 -3 15 -4 20
-1 4 -2 10 -1 15 1 7 -15 11 -33 8 -5 -1 -6 5 -3 14 4 9 -3 21 -18 31 -14 9
-22 21 -18 28 3 6 3 8 -2 4 -4 -4 -21 4 -37 17 -16 14 -36 26 -44 26 -27 3
-32 4 -40 12 -4 4 -16 7 -26 7 -13 0 -17 4 -12 13 5 8 2 8 -9 -2 -15 -12 -21
-9 -19 9 0 3 -8 6 -19 6 -10 0 -19 -4 -19 -8 0 -5 -9 -4 -20 2 -12 6 -20 7
-20 1 0 -6 -11 -6 -30 -1 -20 6 -30 5 -30 -2 0 -7 -4 -7 -12 0 -8 6 -22 6 -35
1z m111 -177 c3 -5 -1 -9 -9 -9 -8 0 -12 4 -9 9 3 4 7 8 9 8 2 0 6 -4 9 -8z
m-99 -12 c3 -6 -1 -7 -9 -4 -18 7 -21 14 -7 14 6 0 13 -4 16 -10z m-68 -17
c-4 -3 -2 -12 4 -19 7 -8 6 -14 -2 -20 -7 -4 -9 -3 -5 4 3 6 2 13 -4 17 -10 6
-5 25 7 25 4 0 3 -3 0 -7z m513 -743 c0 -5 -2 -10 -4 -10 -3 0 -8 5 -11 10 -3
6 -1 10 4 10 6 0 11 -4 11 -10z"/>
<path d="M2390 1410 c0 -4 -11 -6 -25 -5 -14 2 -25 -2 -25 -8 0 -7 -5 -5 -10
3 -7 11 -10 11 -10 2 0 -7 -4 -10 -10 -7 -5 3 -10 1 -10 -5 0 -6 -4 -8 -10 -5
-5 3 -10 0 -10 -7 0 -9 -3 -9 -10 2 -6 10 -10 11 -10 3 0 -7 -6 -12 -12 -10
-7 1 -12 -3 -11 -10 2 -7 -4 -10 -12 -7 -8 4 -15 1 -15 -5 0 -6 -5 -11 -11
-11 -6 0 -32 -21 -58 -47 -25 -26 -39 -43 -31 -38 9 6 7 2 -3 -7 -11 -10 -15
-18 -11 -18 5 0 3 -4 -5 -9 -8 -5 -16 -17 -17 -25 -1 -9 2 -14 7 -10 5 3 9 0
9 -6 0 -6 4 -8 10 -5 6 4 7 -1 3 -11 -5 -13 -3 -16 10 -11 17 6 22 -3 17 -32
-1 -11 2 -10 15 3 15 14 35 14 35 0 0 -3 -4 -2 -10 1 -5 3 -10 4 -10 1 0 -3
10 -10 21 -17 17 -9 20 -8 14 3 -4 7 2 3 12 -9 16 -19 20 -20 37 -8 10 8 24
12 30 8 6 -3 8 -3 4 2 -5 5 1 14 12 22 11 8 20 19 20 25 0 6 -12 -1 -27 -16
-14 -14 -29 -24 -32 -20 -3 3 2 10 12 15 9 6 15 15 11 20 -3 5 0 8 8 7 7 -2
12 2 11 7 -1 6 16 9 37 9 34 -2 38 0 35 21 -1 16 2 22 11 18 8 -3 11 -10 7
-17 -4 -6 0 -6 9 2 13 10 17 10 20 0 3 -8 7 -6 11 6 4 9 3 15 -2 11 -5 -3 -13
0 -17 6 -4 8 -3 9 4 5 7 -4 12 -2 12 5 0 7 7 4 15 -7 8 -10 15 -15 15 -10 0 5
8 2 18 -5 16 -13 16 -13 2 5 -14 18 -13 19 8 14 12 -4 20 -2 17 2 -7 11 22 7
32 -5 4 -4 3 -5 -3 -2 -6 3 -11 0 -11 -7 0 -11 4 -12 18 -3 10 6 16 15 13 19
-3 4 2 5 10 2 9 -3 13 -11 9 -18 -4 -7 -2 -7 7 1 9 9 19 9 32 2 11 -6 26 -8
34 -5 8 3 13 2 10 -2 -9 -14 31 -41 42 -30 8 8 9 4 5 -11 -3 -11 -1 -21 4 -21
5 0 9 -9 10 -20 1 -11 -2 -18 -7 -15 -6 3 -7 -1 -4 -9 6 -15 -14 -61 -23 -52
-7 7 -32 -17 -27 -26 3 -4 -4 -7 -13 -8 -47 -1 -63 -5 -63 -14 0 -5 -3 -6 -7
-3 -3 4 -12 2 -20 -4 -10 -9 -13 -8 -13 2 0 10 -2 11 -8 2 -4 -6 -32 -12 -62
-14 -30 -1 -61 -7 -69 -13 -12 -9 -13 -8 -6 4 5 9 -1 7 -15 -5 -14 -12 -20
-14 -15 -5 8 13 7 13 -8 1 -9 -7 -17 -10 -17 -5 0 5 -5 2 -10 -6 -9 -13 -10
-13 -10 0 -1 12 -3 11 -14 -3 -8 -10 -24 -20 -37 -22 -12 -3 -26 -10 -31 -17
-4 -7 -8 -9 -8 -5 0 13 -71 -65 -84 -93 -7 -14 -12 -37 -11 -52 0 -16 -3 -28
-7 -28 -5 0 -3 -10 3 -22 11 -22 11 -22 -6 -8 -17 14 -17 14 -1 -18 10 -19 15
-40 12 -48 -3 -7 1 -20 9 -28 8 -8 15 -21 15 -30 0 -8 9 -21 20 -29 11 -8 17
-16 14 -19 -3 -3 7 -8 21 -12 15 -4 25 -13 25 -25 0 -10 7 -22 16 -25 14 -5
15 -4 4 9 -11 13 -10 14 4 9 9 -3 16 -10 16 -15 0 -5 8 -9 18 -9 11 0 24 -10
31 -22 6 -13 9 -15 6 -5 -2 10 -1 16 4 12 5 -3 12 1 15 7 3 7 3 2 0 -12 -5
-25 -5 -25 12 -5 16 20 16 20 11 -4 -4 -17 -3 -21 5 -13 8 8 15 7 24 -6 12
-15 12 -14 7 7 -6 22 -5 23 9 10 9 -7 14 -17 11 -21 -2 -4 3 -5 11 -2 8 3 12
13 9 22 -4 13 -3 14 5 3 5 -7 16 -10 23 -7 8 4 3 -2 -10 -13 -13 -12 -19 -21
-14 -21 5 0 14 5 21 12 9 9 15 8 27 -8 13 -16 14 -16 9 -1 -5 13 -2 16 12 11
14 -4 15 -3 6 4 -11 7 -11 10 2 15 9 4 15 1 13 -5 -3 -14 71 -20 79 -6 3 5 11
5 19 -2 9 -8 14 -7 18 4 4 10 1 13 -9 9 -7 -3 -14 0 -14 7 0 6 4 9 9 5 5 -3
12 -1 15 3 6 10 36 9 54 -2 15 -9 12 15 -3 27 -5 4 1 6 15 5 15 -2 24 2 23 9
-2 7 4 10 12 7 8 -4 15 -1 15 5 0 6 7 8 15 5 8 -4 12 -10 9 -16 -3 -5 3 -4 15
4 12 7 17 14 11 16 -5 2 -10 8 -10 13 0 6 5 7 12 3 7 -5 9 0 6 14 -5 19 -3 20
12 12 30 -16 35 -11 10 10 -13 11 -19 20 -14 20 6 0 16 -6 23 -13 9 -8 12 -8
7 0 -3 6 0 14 6 16 8 3 6 6 -4 6 -20 1 -23 12 -7 28 8 8 7 13 -2 18 -8 6 -10
4 -5 -6 4 -8 0 -5 -9 6 -9 11 -21 19 -26 18 -5 -2 -9 2 -9 8 0 5 -4 8 -9 4 -5
-3 -16 1 -24 9 -8 8 -27 18 -42 22 -22 5 -32 1 -52 -22 -13 -16 -22 -22 -18
-14 4 8 -1 6 -10 -5 -9 -11 -21 -19 -26 -17 -5 1 -9 -2 -9 -8 0 -5 -5 -10 -11
-10 -5 0 -7 5 -3 11 4 8 0 7 -15 -1 -12 -6 -19 -15 -17 -19 3 -4 -1 -8 -9 -8
-8 0 -12 5 -9 11 3 6 -2 2 -10 -8 -9 -11 -16 -15 -16 -8 0 10 -30 9 -49 -3 -5
-3 -13 -1 -16 5 -5 8 -11 8 -20 0 -9 -7 -16 -6 -24 4 -7 8 -24 17 -38 21 -30
7 -66 43 -57 56 3 5 -1 9 -8 9 -8 0 -6 5 5 11 11 6 16 18 13 33 -3 18 0 22 17
21 12 -1 28 2 35 8 10 8 16 7 24 -4 8 -12 9 -12 5 1 -2 8 -13 16 -25 16 -12 1
-19 -3 -16 -7 3 -5 -2 -6 -11 -2 -25 9 2 22 38 17 26 -3 27 -2 15 13 -10 13
-6 12 17 -3 26 -17 28 -17 23 -2 -5 13 -3 15 9 11 12 -5 14 -3 8 8 -7 12 -5
12 6 1 12 -11 12 -14 0 -21 -10 -7 -7 -9 11 -8 23 2 25 5 16 22 -6 11 -7 17
-3 13 5 -4 14 -3 21 3 15 12 37 3 29 -12 -4 -5 -1 -9 4 -9 6 0 11 5 11 11 0 5
5 7 10 4 6 -4 7 -11 4 -17 -4 -6 2 -6 15 1 24 13 28 23 6 15 -8 -4 -15 -2 -15
3 0 13 33 12 42 -1 5 -8 8 -7 8 2 0 6 5 12 11 12 5 0 7 -5 3 -12 -5 -8 -2 -9
12 -4 10 4 26 9 33 10 8 2 17 8 19 14 2 7 8 12 14 12 6 0 7 -7 4 -16 -4 -9 -2
-13 5 -8 6 3 9 18 6 32 l-5 26 19 -25 19 -24 -9 26 c-7 20 -6 26 4 26 8 0 13
-3 11 -6 -2 -3 3 -12 11 -20 13 -12 14 -11 9 7 -6 17 -3 20 14 17 11 -2 18 0
15 6 -4 5 -10 7 -15 4 -5 -3 -11 -1 -14 4 -3 5 7 8 23 7 17 -1 28 1 26 5 -3 3
4 14 15 24 19 17 17 42 -4 58 -6 4 3 5 19 1 29 -6 29 -6 10 11 -11 9 -14 14
-7 10 9 -5 11 0 8 19 -3 14 0 26 5 26 5 0 9 9 9 19 0 11 5 23 10 26 8 5 7 11
0 20 -7 8 -9 19 -5 25 4 7 -2 14 -15 17 -16 4 -18 8 -8 14 8 6 9 9 1 9 -6 0
-9 9 -5 22 3 14 2 19 -6 14 -7 -4 -12 -1 -12 8 0 9 -4 16 -10 16 -5 0 -10 7
-10 16 0 8 -7 22 -15 30 -8 9 -15 13 -15 9 0 -4 -7 0 -15 9 -8 8 -15 20 -15
26 0 6 -4 9 -9 5 -5 -3 -17 2 -25 11 -9 8 -16 13 -16 9 0 -4 -7 0 -15 8 -8 9
-24 13 -35 10 -11 -3 -20 0 -20 6 0 5 -6 8 -13 5 -8 -3 -19 2 -26 10 -9 11
-19 12 -36 6 -14 -5 -26 -5 -34 3 -8 8 -11 8 -11 0 0 -8 -9 -9 -30 -3 -16 5
-30 5 -30 1 0 -4 -22 -5 -50 -1 -27 4 -50 3 -50 0z m-35 -218 c-3 -3 -16 -7
-28 -9 -20 -2 -20 -2 -4 8 10 6 14 15 10 22 -4 7 1 6 10 -2 10 -8 15 -16 12
-19z m550 -42 c-4 -6 -2 -17 4 -24 8 -10 8 -16 -3 -25 -11 -10 -13 -6 -11 21
3 38 3 38 11 38 3 0 2 -5 -1 -10z m-37 -198 c12 9 11 6 -2 -10 -11 -12 -24
-22 -30 -21 -7 0 -7 2 1 5 7 3 11 11 9 17 -1 7 -1 8 2 4 2 -4 11 -2 20 5z
m-158 -111 c0 -10 -39 -11 -45 0 -4 5 2 6 11 2 12 -4 15 -3 10 5 -5 8 -2 10 8
6 9 -3 16 -9 16 -13z m-380 -121 c0 -5 -4 -10 -10 -10 -5 0 -10 5 -10 10 0 6
5 10 10 10 6 0 10 -4 10 -10z m474 -206 c3 -8 2 -12 -4 -9 -6 3 -10 10 -10 16
0 14 7 11 14 -7z m-301 -79 c-3 -9 -8 -14 -10 -11 -3 3 -2 9 2 15 9 16 15 13
8 -4z m112 -4 c-8 -14 -25 -14 -25 0 0 5 5 7 10 4 6 -3 10 -1 10 6 0 7 3 10 6
6 3 -3 3 -10 -1 -16z"/>
<path d="M449 1204 c-7 -9 -6 -12 5 -10 9 1 19 5 22 9 4 4 13 2 20 -4 8 -7 14
-7 19 1 7 12 8 11 -28 14 -15 2 -32 -3 -38 -10z"/>
<path d="M1648 1193 c6 -2 9 -10 6 -15 -4 -7 -2 -8 5 -4 13 9 5 26 -12 25 -9
0 -8 -2 1 -6z"/>
<path d="M1350 1156 c0 -2 8 -10 18 -17 15 -13 16 -12 3 4 -13 16 -21 21 -21
13z"/>
<path d="M296 1122 c-3 -5 1 -9 9 -9 8 0 12 4 9 9 -3 4 -7 8 -9 8 -2 0 -6 -4
-9 -8z"/>
<path d="M2245 1080 c-3 -6 1 -7 9 -4 18 7 21 14 7 14 -6 0 -13 -4 -16 -10z"/>
<path d="M2909 1043 c-13 -16 -12 -17 4 -4 16 13 21 21 13 21 -2 0 -10 -8 -17
-17z"/>
<path d="M1953 995 c0 -8 4 -12 9 -9 5 3 6 10 3 15 -9 13 -12 11 -12 -6z"/>
<path d="M255 980 c-3 -5 -1 -10 4 -10 6 0 11 5 11 10 0 6 -2 10 -4 10 -3 0
-8 -4 -11 -10z"/>
<path d="M2525 811 c-3 -5 -1 -12 4 -15 5 -3 11 1 15 9 6 16 -9 21 -19 6z"/>
<path d="M1955 631 c-3 -5 -2 -12 3 -15 5 -3 9 1 9 9 0 17 -3 19 -12 6z"/>
<path d="M923 517 c0 -8 6 -14 13 -14 7 0 10 6 7 14 -3 7 -8 13 -12 13 -4 0
-8 -6 -8 -13z"/>
<path d="M2190 516 c0 -2 7 -7 16 -10 8 -3 12 -2 9 4 -6 10 -25 14 -25 6z"/>
<path d="M2750 472 l-22 -18 23 -1 c19 -2 20 0 9 7 -13 8 -12 10 3 10 9 0 17
5 17 10 0 14 -4 13 -30 -8z"/>
<path d="M478 442 c3 -10 7 -12 10 -4 2 7 8 12 13 12 6 0 7 -5 3 -12 -4 -7 -3
-8 5 -4 6 4 20 2 29 -5 16 -12 16 -12 0 5 -22 25 -69 31 -60 8z"/>
<path d="M807 443 c3 -7 6 -13 8 -13 2 0 5 6 8 13 3 8 -1 14 -8 14 -7 0 -11
-6 -8 -14z"/>
<path d="M1213 447 c0 -8 6 -14 13 -14 7 0 10 6 7 14 -3 7 -8 13 -12 13 -4 0
-8 -6 -8 -13z"/>
<path d="M2679 433 c-13 -16 -12 -17 4 -4 16 13 21 21 13 21 -2 0 -10 -8 -17
-17z"/>
</g>
</svg>
